<?xml version="1.0" standalone="no"?>
<!DOCTYPE svg PUBLIC "-//W3C//DTD SVG 20010904//EN"
 "http://www.w3.org/TR/2001/REC-SVG-20010904/DTD/svg10.dtd">
<svg version="1.0" xmlns="http://www.w3.org/2000/svg"
 width="50.000000pt" height="76.000000pt" viewBox="0 0 50.000000 76.000000"
 preserveAspectRatio="xMidYMid meet">

<g transform="translate(0.000000,76.000000) scale(0.100000,-0.100000)"
fill="#000000" stroke="none">
<path d="M44 733 l-25 -27 3 -309 3 -309 28 -24 c27 -23 33 -24 187 -24 170 0
201 7 219 47 7 16 11 125 11 322 0 287 -1 299 -21 325 l-20 26 -180 0 -180 0
-25 -27z m375 -37 c8 -10 12 -93 12 -277 l0 -264 -186 -3 -185 -2 0 268 c0
195 3 271 12 280 18 18 332 17 347 -2z m-124 -596 c0 -18 -62 -27 -77 -12 -18
18 3 33 40 30 25 -2 37 -8 37 -18z"/>
<path d="M145 615 c-16 -9 -33 -22 -37 -28 -11 -17 -10 -85 2 -92 6 -4 6 -15
-1 -32 -11 -29 -6 -71 18 -170 18 -73 33 -82 33 -19 0 54 17 103 30 90 6 -6
13 -38 16 -72 4 -34 10 -62 15 -62 4 0 10 19 14 43 14 82 45 86 45 6 0 -69 15
-54 36 37 13 54 24 78 38 86 31 16 36 28 36 82 0 47 -1 48 -18 33 -23 -21 -66
-22 -82 -2 -33 39 -41 -58 -9 -99 26 -33 9 -34 -28 -2 -24 21 -28 32 -27 71
l1 47 -44 -5 c-39 -4 -43 -3 -43 18 0 26 29 55 56 55 11 0 30 -7 42 -16 19
-13 22 -13 22 -1 0 37 -69 56 -115 32z"/>
</g>
</svg>
