<?xml version="1.0" standalone="no"?>
<!DOCTYPE svg PUBLIC "-//W3C//DTD SVG 20010904//EN"
 "http://www.w3.org/TR/2001/REC-SVG-20010904/DTD/svg10.dtd">
<svg version="1.0" xmlns="http://www.w3.org/2000/svg"
 width="47.000000pt" height="73.000000pt" viewBox="0 0 47.000000 73.000000"
 preserveAspectRatio="xMidYMid meet">

<g transform="translate(0.000000,73.000000) scale(0.100000,-0.100000)"
fill="#000000" stroke="none">
<path d="M34 703 l-25 -27 3 -309 3 -309 28 -24 c27 -23 33 -24 187 -24 170 0
201 7 219 47 7 16 11 125 11 322 0 287 -1 299 -21 325 l-20 26 -180 0 -180 0
-25 -27z m375 -37 c8 -10 12 -93 12 -277 l0 -264 -186 -3 -185 -2 0 268 c0
195 3 271 12 280 18 18 332 17 347 -2z m-124 -596 c0 -18 -62 -27 -77 -12 -18
18 3 33 40 30 25 -2 37 -8 37 -18z"/>
<path d="M227 503 c-6 -34 -11 -43 -27 -43 -11 0 -28 -9 -37 -20 -13 -14 -30
-20 -61 -20 -62 0 -50 -20 28 -46 l64 -20 11 -55 c14 -65 21 -79 43 -79 18 0
152 77 152 88 0 14 -38 63 -59 79 -21 14 -24 14 -50 -11 -31 -29 -53 -36 -28
-8 22 25 31 72 23 127 -8 49 -26 62 -26 18 0 -30 -15 -21 -22 12 -2 12 -7 4
-11 -22z m-25 -85 c-9 -9 -15 -9 -24 0 -9 9 -7 12 12 12 19 0 21 -3 12 -12z"/>
</g>
</svg>
